<svg xmlns="http://www.w3.org/2000/svg" xmlns:xlink="http://www.w3.org/1999/xlink" viewBox="0 0 326.06 67.69"><defs><style>.a,.b{fill:none;}.a{clip-rule:evenodd;}.c{clip-path:url(#a);}.d{clip-path:url(#b);}.e{fill:#fff;}.f{clip-path:url(#c);}.g{clip-path:url(#e);}.h{clip-path:url(#g);}.i{clip-path:url(#i);}.j{clip-path:url(#k);}.k{clip-path:url(#m);}</style><clipPath id="a" transform="translate(4.06 4.69)"><polygon class="a" points="286 14 286 20.7 306.67 20.7 290.95 58 298.45 58 314.47 19.98 317 14 286 14"/></clipPath><clipPath id="b" transform="translate(4.06 4.69)"><rect class="b" x="-679" y="-111" width="2560" height="650"/></clipPath><clipPath id="c" transform="translate(4.06 4.69)"><path class="a" d="M154.25,29.09c0-5.88,5.48-9.83,10.59-9.83,6.22,0,10.08,4.35,10.08,11.36V57.23h7V29.77c0-5.08,2.83-10.51,10.76-10.51,6.17,0,10.16,4.46,10.16,11.36V57.23h7V30.62c0-11.06-6.26-17.93-16.35-17.93a17.15,17.15,0,0,0-14.28,7c-2.1-3.41-6-7-13.18-7a15.74,15.74,0,0,0-11.88,4.85V13.29h-7V57.23h7Z"/></clipPath><clipPath id="e" transform="translate(4.06 4.69)"><path class="a" d="M73.73,34.62c0-6.65-2.14-12.27-6.08-16.27a20.17,20.17,0,0,0-14.56-5.83c-12.9,0-22.27,9.54-22.27,22.69,0,13.31,9.09,22.61,22.1,22.61,8.62,0,15.34-3.69,19.42-10.67l.35-.6-6-3.85-.39.65c-3.18,5.39-7.43,7.9-13.35,7.9a14.83,14.83,0,0,1-15-14.39H73.73Zm-35.52-4A15,15,0,0,1,52.92,19.09,13.47,13.47,0,0,1,66.57,30.58Z"/></clipPath><clipPath id="g" transform="translate(4.06 4.69)"><polygon class="a" points="7.98 19.85 28.14 19.85 28.14 13.29 0.94 13.29 0.94 57.32 7.98 57.32 7.98 19.85"/></clipPath><clipPath id="i" transform="translate(4.06 4.69)"><path class="a" d="M238,57.83c8.62,0,15.34-3.69,19.42-10.67l.35-.6-6-3.85-.39.65c-3.18,5.39-7.43,7.9-13.35,7.9a14.82,14.82,0,0,1-15-14.39h35.84V34.62c0-6.65-2.14-12.27-6.07-16.27a20.17,20.17,0,0,0-14.56-5.83c-12.9,0-22.27,9.54-22.27,22.69C215.94,48.53,225,57.83,238,57.83ZM223.33,30.58A15,15,0,0,1,238,19.09a13.47,13.47,0,0,1,13.65,11.49Z"/></clipPath><clipPath id="k" transform="translate(4.06 4.69)"><rect class="b" x="131.03" y="0.31" width="7.04" height="56.92"/></clipPath><clipPath id="m" transform="translate(4.06 4.69)"><path class="a" d="M101.26,58a21.58,21.58,0,0,0,13.68-4.7v4h7V13.38h-7v4a21.8,21.8,0,0,0-13.68-4.72,22.26,22.26,0,0,0-16.14,6.54,22.9,22.9,0,0,0-6.3,16.15,22.77,22.77,0,0,0,6.3,16.11A22.31,22.31,0,0,0,101.26,58M85.86,35.39c0-9,6.47-15.71,15.05-15.71,8.9,0,14.88,6.31,14.88,15.71S109.82,51,100.92,51c-8.58,0-15.05-6.72-15.05-15.62"/></clipPath></defs><title>welcome-7-logo</title><g class="c"><g class="d"><rect class="e" x="285.06" y="13.69" width="41" height="54"/></g></g><g class="f"><g class="d"><rect class="e" x="146.27" y="12.38" width="72.72" height="54.54"/></g></g><g class="g"><g class="d"><rect class="e" x="29.89" y="12.21" width="52.9" height="55.31"/></g></g><g class="h"><g class="d"><rect class="e" y="12.98" width="37.2" height="54.03"/></g></g><g class="i"><g class="d"><rect class="e" x="215" y="12.21" width="52.9" height="55.31"/></g></g><g class="j"><g class="d"><rect class="e" x="130.09" width="17.04" height="66.92"/></g></g><g class="k"><g class="d"><rect class="e" x="77.88" y="12.38" width="53.08" height="55.31"/></g></g></svg>