<svg xmlns="http://www.w3.org/2000/svg" xmlns:xlink="http://www.w3.org/1999/xlink" viewBox="0 0 298 52"><defs><style>.a,.b{fill:none;}.a{clip-rule:evenodd;}.c{clip-path:url(#a);}.d{clip-path:url(#b);}.e{fill:#fff;}.f{clip-path:url(#c);}.g{clip-path:url(#e);}.h{clip-path:url(#g);}.i{clip-path:url(#i);}.j{clip-path:url(#k);}.k{clip-path:url(#m);}.l{clip-path:url(#o);}.m{clip-path:url(#q);}.n{clip-path:url(#s);}.o{clip-path:url(#u);}</style><clipPath id="a" transform="translate(5 5)"><path class="a" d="M258,22.26a5.15,5.15,0,0,1-5.21,5.26h-3.21V33H247V17h5.79A5.14,5.14,0,0,1,258,22.26m-2.58,0a2.61,2.61,0,0,0-2.62-2.79h-3.21V25h3.21a2.63,2.63,0,0,0,2.62-2.79"/></clipPath><clipPath id="b" transform="translate(5 5)"><rect class="b" x="-1605" y="-205" width="2560" height="650"/></clipPath><clipPath id="c" transform="translate(5 5)"><path class="a" d="M266,21v2.76a3.06,3.06,0,0,0-3.53,3.3V33H260V21.21h2.47v2A3.59,3.59,0,0,1,266,21"/></clipPath><clipPath id="e" transform="translate(5 5)"><path class="a" d="M267,27a6.52,6.52,0,0,1,13,0,6.52,6.52,0,0,1-13,0m10.34,0a3.85,3.85,0,1,0-3.84,3.6,3.65,3.65,0,0,0,3.84-3.6"/></clipPath><clipPath id="g" transform="translate(5 5)"><path class="a" d="M281.88,11.51a3.7,3.7,0,0,1,3.66,3.73V34.75a3.7,3.7,0,0,1-3.66,3.74H243.12a3.7,3.7,0,0,1-3.66-3.74V15.24a3.7,3.7,0,0,1,3.66-3.73h38.76m0-2.51H243.12A6.18,6.18,0,0,0,237,15.24V34.75A6.18,6.18,0,0,0,243.12,41h38.76A6.18,6.18,0,0,0,288,34.75V15.24A6.18,6.18,0,0,0,281.88,9"/></clipPath><clipPath id="i" transform="translate(5 5)"><polygon class="a" points="205 9 205 13.87 219.04 13.87 208.36 41 213.45 41 224.33 13.35 226 9 205 9"/></clipPath><clipPath id="k" transform="translate(5 5)"><path class="a" d="M110.05,20.15c0-4.36,3.93-7.28,7.6-7.28,4.46,0,7.23,3.23,7.23,8.42V41h5.05V20.65c0-3.77,2-7.79,7.72-7.79,4.43,0,7.29,3.31,7.29,8.42V41H150V21.28C150,13.09,145.51,8,138.27,8A12.17,12.17,0,0,0,128,13.19,10.38,10.38,0,0,0,118.57,8a11.11,11.11,0,0,0-8.52,3.6V8.44H105V41h5.05Z"/></clipPath><clipPath id="m" transform="translate(5 5)"><path class="a" d="M52,24.09c0-4.84-1.55-8.94-4.39-11.85A14.51,14.51,0,0,0,37.09,8C27.77,8,21,15,21,24.53S27.56,41,37,41c6.23,0,11.08-2.68,14-7.77l.25-.44L46.89,30l-.28.48c-2.3,3.93-5.37,5.76-9.65,5.76A10.75,10.75,0,0,1,26.1,25.74H52ZM26.34,21.15A10.85,10.85,0,0,1,37,12.78a9.75,9.75,0,0,1,9.86,8.37Z"/></clipPath><clipPath id="o" transform="translate(5 5)"><polygon class="a" points="5.18 13.77 20 13.77 20 9 0 9 0 41 5.18 41 5.18 13.77"/></clipPath><clipPath id="q" transform="translate(5 5)"><path class="a" d="M170,41c6.23,0,11.08-2.68,14-7.77l.25-.44L179.89,30l-.28.48c-2.3,3.93-5.37,5.76-9.65,5.76A10.75,10.75,0,0,1,159.1,25.74H185V24.09c0-4.84-1.55-8.94-4.39-11.85A14.51,14.51,0,0,0,170.09,8C160.77,8,154,15,154,24.53S160.56,41,170,41ZM159.34,21.15A10.85,10.85,0,0,1,170,12.78a9.75,9.75,0,0,1,9.86,8.37Z"/></clipPath><clipPath id="s" transform="translate(5 5)"><rect class="b" x="94" width="5" height="41"/></clipPath><clipPath id="u" transform="translate(5 5)"><path class="a" d="M72.15,42A15.42,15.42,0,0,0,82,38.57V41.5h5V9.5H82v2.94A15.57,15.57,0,0,0,72.15,9a15.92,15.92,0,0,0-11.62,4.77A16.79,16.79,0,0,0,56,25.53a16.69,16.69,0,0,0,4.53,11.73A16,16,0,0,0,72.15,42M61.07,25.53c0-6.52,4.66-11.44,10.83-11.44,6.41,0,10.71,4.6,10.71,11.44S78.31,36.91,71.9,36.91c-6.18,0-10.83-4.89-10.83-11.38"/></clipPath></defs><title>矢量智能对象1</title><g class="c"><g class="d"><rect class="e" x="247" y="17" width="21" height="26"/></g></g><g class="f"><g class="d"><rect class="e" x="260" y="21" width="16" height="22"/></g></g><g class="g"><g class="d"><rect class="e" x="267" y="21" width="23" height="22"/></g></g><g class="h"><g class="d"><rect class="e" x="237" y="9" width="61" height="42"/></g></g><g class="i"><g class="d"><rect class="e" x="205" y="9" width="31" height="42"/></g></g><g class="j"><g class="d"><rect class="e" x="105" y="8" width="55" height="43"/></g></g><g class="k"><g class="d"><rect class="e" x="21" y="8" width="41" height="43"/></g></g><g class="l"><g class="d"><rect class="e" y="9" width="30" height="42"/></g></g><g class="m"><g class="d"><rect class="e" x="154" y="8" width="41" height="43"/></g></g><g class="n"><g class="d"><rect class="e" x="94" width="15" height="51"/></g></g><g class="o"><g class="d"><rect class="e" x="56" y="9" width="41" height="43"/></g></g></svg>